<svg xmlns="http://www.w3.org/2000/svg" viewBox="0 0 32 32" fill="none">
  <rect width="32" height="32" rx="7" fill="#0b0e12"/>
  <!-- Open playbook mark -->
  <path d="M5.5 8c0-1 .8-1.8 1.8-1.8H15v19.6H7.3c-1 0-1.8-.8-1.8-1.8V8Z" fill="#FF5500"/>
  <path d="M26.5 8c0-1-.8-1.8-1.8-1.8H17v19.6h7.7c1 0 1.8-.8 1.8-1.8V8Z" fill="#FF5500"/>
  <rect x="15" y="6.2" width="2" height="19.6" fill="#0b0e12"/>
  <!-- Page lines -->
  <path d="M8.5 11.5h4.5M8.5 15h4.5M8.5 18.5h3" stroke="#0b0e12" stroke-width="1.3" stroke-linecap="round" opacity="0.55"/>
  <path d="M19 11.5h4.5M19 15h4.5M19 18.5h3" stroke="#0b0e12" stroke-width="1.3" stroke-linecap="round" opacity="0.55"/>
</svg>
